<svg width="438" height="238" viewBox="0 0 438 238" fill="none" xmlns="http://www.w3.org/2000/svg">
<rect x="1" width="437" height="237" rx="20" fill="#5C3C85"/>
<path fill-rule="evenodd" clip-rule="evenodd" d="M390.5 166C405.136 166 417 178.163 417 193.17C417 205.172 409.416 215.353 398.893 218.95C397.549 219.217 397.072 218.369 397.072 217.645C397.072 216.75 397.104 213.824 397.104 210.188C397.104 207.655 396.256 206.001 395.304 205.159C401.206 204.486 407.407 202.188 407.407 191.752C407.407 188.784 406.379 186.362 404.678 184.459C404.953 183.773 405.862 181.009 404.418 177.268C404.418 177.268 402.197 176.54 397.138 180.054C395.021 179.452 392.753 179.149 390.5 179.139C388.248 179.149 385.982 179.452 383.867 180.054C378.803 176.54 376.577 177.268 376.577 177.268C375.138 181.009 376.047 183.773 376.32 184.459C374.627 186.362 373.59 188.784 373.59 191.752C373.59 202.161 379.778 204.494 385.664 205.181C384.906 205.859 384.22 207.056 383.981 208.813C382.471 209.507 378.633 210.709 376.269 206.556C376.269 206.556 374.868 203.946 372.207 203.755C372.207 203.755 369.623 203.72 372.027 205.406C372.027 205.406 373.763 206.241 374.968 209.381C374.968 209.381 376.524 214.23 383.896 212.587C383.909 214.858 383.933 216.999 383.933 217.645C383.933 218.363 383.446 219.204 382.123 218.952C371.592 215.361 364 205.175 364 193.17C364 178.163 375.867 166 390.5 166Z" fill="white"/>
<path opacity="0.56" d="M96.5 104.5C70.9677 58.2227 22.7558 68.1138 1.66717 78.9141C1.55319 78.9725 1.4539 79.0461 1.36334 79.1367C1.1307 79.3693 1 79.6848 1 80.0138V218.5C2.38069 228.51 10.0661 233.779 15.2528 235.785C16.717 236.351 18.2931 236.501 19.863 236.504L322.072 236.999C322.308 237 322.5 236.808 322.5 236.572C322.5 236.524 322.493 236.479 322.477 236.434C311.953 205.92 279.456 150.559 225.5 155.5C193.167 157.833 122.1 150.9 96.5 104.5Z" fill="#BF8DFF" stroke="#C08DFF"/>
<path d="M56.6194 128.246C45.3405 113.474 25.8126 114.539 11.5224 118.714C4.24064 120.842 0.0253998 127.983 0.065584 135.569L0.501057 217.778C1.91051 228.806 9.87627 234.126 15.0726 235.939C16.3554 236.387 17.7205 236.496 19.0791 236.499L234.422 236.994C235.755 236.997 236.758 235.779 236.499 234.471C225.977 194.004 186.894 179.638 150.818 188.946C115.996 197.93 90.8212 177.788 81.6034 165.459C80.9638 164.604 80.4481 163.676 79.9486 162.732C77.2781 157.685 69.964 145.723 56.6194 128.246Z" fill="#BF8CFF" fill-opacity="0.7"/>
<path d="M62.5 194.5C55.5 154.5 2 154.5 0.5 166.5L1.00002 217.5C1.45954 221.942 4.87519 231.226 14.74 235.495C16.5264 236.268 18.4889 236.5 20.4354 236.5H216.788C196.28 208.259 161.212 206.564 136.5 212C111.5 217.5 68.1339 226.694 62.5 194.5Z" fill="#BF8CFF" fill-opacity="0.7"/>
<path d="M26.6592 220.599C26.6592 220.79 26.6227 220.972 26.5498 221.146C26.4769 221.314 26.3766 221.462 26.249 221.59C26.1214 221.717 25.971 221.818 25.7979 221.891C25.6292 221.964 25.4492 222 25.2578 222H19.6592C19.4678 222 19.2855 221.964 19.1123 221.891C18.9437 221.818 18.7956 221.717 18.668 221.59C18.5404 221.462 18.4401 221.314 18.3672 221.146C18.2943 220.972 18.2578 220.79 18.2578 220.599V213.599C18.2578 213.407 18.2943 213.227 18.3672 213.059C18.4401 212.885 18.5404 212.737 18.668 212.614C18.7956 212.487 18.9437 212.386 19.1123 212.313C19.2855 212.236 19.4678 212.197 19.6592 212.197H25.2578C25.4492 212.197 25.6292 212.236 25.7979 212.313C25.971 212.386 26.1214 212.487 26.249 212.614C26.3766 212.737 26.4769 212.885 26.5498 213.059C26.6227 213.227 26.6592 213.407 26.6592 213.599V220.599ZM19.6592 213.599V220.599H25.2578V213.599H19.6592ZM30.3848 216.066V222H29.0449V214.72H30.3848V216.005C30.3939 215.827 30.4349 215.661 30.5078 215.506C30.5807 215.346 30.6764 215.21 30.7949 215.096C30.918 214.977 31.0592 214.886 31.2188 214.822C31.3783 214.754 31.5492 214.72 31.7314 214.72H33.1602C33.347 214.72 33.5202 214.756 33.6797 214.829C33.8438 214.897 33.9873 214.993 34.1104 215.116C34.2334 215.235 34.3291 215.376 34.3975 215.54C34.4704 215.704 34.5068 215.88 34.5068 216.066V217.297H33.1602V216.066H30.3848ZM36.1816 216.066C36.1816 215.88 36.2158 215.704 36.2842 215.54C36.3571 215.376 36.4528 215.235 36.5713 215.116C36.6943 214.993 36.8379 214.897 37.002 214.829C37.166 214.756 37.3392 214.72 37.5215 214.72H39.9346C40.1123 214.72 40.2809 214.754 40.4404 214.822C40.5999 214.886 40.7389 214.977 40.8574 215.096C40.9805 215.21 41.0785 215.346 41.1514 215.506C41.2288 215.661 41.2699 215.827 41.2744 216.005V214.72H42.6211V223.593C42.6211 223.78 42.5846 223.955 42.5117 224.119C42.4434 224.283 42.3477 224.424 42.2246 224.543C42.1061 224.666 41.9648 224.762 41.8008 224.83C41.6367 224.903 41.4613 224.939 41.2744 224.939H37.0225V223.593H41.2744V221.72H37.5215C37.3392 221.72 37.166 221.686 37.002 221.617C36.8379 221.544 36.6943 221.449 36.5713 221.33C36.4528 221.207 36.3571 221.063 36.2842 220.899C36.2158 220.735 36.1816 220.56 36.1816 220.373V216.066ZM41.2744 220.373V216.066H37.5215V220.373H41.2744ZM44.8633 218.821C44.8633 218.634 44.8975 218.461 44.9658 218.302C45.0387 218.138 45.1344 217.994 45.2529 217.871C45.376 217.748 45.5195 217.652 45.6836 217.584C45.8477 217.511 46.0208 217.475 46.2031 217.475H49.6758V216.066H45.2803V214.72H49.6758C49.8626 214.72 50.0381 214.756 50.2021 214.829C50.3662 214.897 50.5075 214.993 50.626 215.116C50.749 215.235 50.8447 215.376 50.9131 215.54C50.986 215.704 51.0225 215.88 51.0225 216.066V222H49.6758V220.77C49.6621 220.938 49.6165 221.098 49.5391 221.248C49.4616 221.398 49.3613 221.531 49.2383 221.645C49.1198 221.754 48.9831 221.84 48.8281 221.904C48.6732 221.968 48.5091 222 48.3359 222H46.2031C46.0208 222 45.8477 221.966 45.6836 221.897C45.5195 221.825 45.376 221.729 45.2529 221.61C45.1344 221.487 45.0387 221.344 44.9658 221.18C44.8975 221.016 44.8633 220.84 44.8633 220.653V218.821ZM46.2031 220.653H49.6758V218.821H46.2031V220.653ZM59.7109 222H58.3643V216.066H54.6113V222H53.2715V214.72H54.6113V216.005C54.6204 215.827 54.6615 215.661 54.7344 215.506C54.8073 215.346 54.903 215.21 55.0215 215.096C55.1445 214.977 55.2858 214.886 55.4453 214.822C55.6048 214.754 55.7757 214.72 55.958 214.72H58.3643C58.5511 214.72 58.7266 214.756 58.8906 214.829C59.0547 214.897 59.196 214.993 59.3145 215.116C59.4375 215.235 59.5332 215.376 59.6016 215.54C59.6745 215.704 59.7109 215.88 59.7109 216.066V222ZM63.3682 214.72V222H62.0215V214.72H63.3682ZM61.9531 211.917H63.4365V213.318H61.9531V211.917ZM65.542 214.72H71.5645V215.082L67.6885 220.653H71.5645V222H65.4053V221.638L69.2812 216.066H65.542V214.72ZM73.5332 218.821C73.5332 218.634 73.5674 218.461 73.6357 218.302C73.7087 218.138 73.8044 217.994 73.9229 217.871C74.0459 217.748 74.1895 217.652 74.3535 217.584C74.5176 217.511 74.6908 217.475 74.873 217.475H78.3457V216.066H73.9502V214.72H78.3457C78.5326 214.72 78.708 214.756 78.8721 214.829C79.0361 214.897 79.1774 214.993 79.2959 215.116C79.4189 215.235 79.5146 215.376 79.583 215.54C79.6559 215.704 79.6924 215.88 79.6924 216.066V222H78.3457V220.77C78.332 220.938 78.2865 221.098 78.209 221.248C78.1315 221.398 78.0312 221.531 77.9082 221.645C77.7897 221.754 77.653 221.84 77.498 221.904C77.3431 221.968 77.179 222 77.0059 222H74.873C74.6908 222 74.5176 221.966 74.3535 221.897C74.1895 221.825 74.0459 221.729 73.9229 221.61C73.8044 221.487 73.7087 221.344 73.6357 221.18C73.5674 221.016 73.5332 220.84 73.5332 220.653V218.821ZM74.873 220.653H78.3457V218.821H74.873V220.653ZM81.5176 214.72H83.2949V212.478H84.6416V214.72H87.0342V216.066H84.6416V220.653H87.0342V222H84.6416C84.4593 222 84.2861 221.966 84.1221 221.897C83.958 221.825 83.8145 221.729 83.6914 221.61C83.5684 221.487 83.4704 221.344 83.3975 221.18C83.3291 221.016 83.2949 220.84 83.2949 220.653V216.066H81.5176V214.72ZM90.6982 214.72V222H89.3516V214.72H90.6982ZM89.2832 211.917H90.7666V213.318H89.2832V211.917ZM99.3115 220.653C99.3115 220.84 99.2751 221.016 99.2021 221.18C99.1338 221.344 99.0381 221.487 98.915 221.61C98.7965 221.729 98.6553 221.825 98.4912 221.897C98.3317 221.966 98.1585 222 97.9717 222H94.3555C94.1732 222 94 221.966 93.8359 221.897C93.6719 221.825 93.5283 221.729 93.4053 221.61C93.2868 221.487 93.1911 221.344 93.1182 221.18C93.0498 221.016 93.0156 220.84 93.0156 220.653V216.066C93.0156 215.88 93.0498 215.704 93.1182 215.54C93.1911 215.376 93.2868 215.235 93.4053 215.116C93.5283 214.993 93.6719 214.897 93.8359 214.829C94 214.756 94.1732 214.72 94.3555 214.72H97.9717C98.1585 214.72 98.3317 214.756 98.4912 214.829C98.6553 214.897 98.7965 214.993 98.915 215.116C99.0381 215.235 99.1338 215.376 99.2021 215.54C99.2751 215.704 99.3115 215.88 99.3115 216.066V220.653ZM94.3555 216.066V220.653H97.9717V216.066H94.3555ZM108 222H106.653V216.066H102.9V222H101.561V214.72H102.9V216.005C102.91 215.827 102.951 215.661 103.023 215.506C103.096 215.346 103.192 215.21 103.311 215.096C103.434 214.977 103.575 214.886 103.734 214.822C103.894 214.754 104.065 214.72 104.247 214.72H106.653C106.84 214.72 107.016 214.756 107.18 214.829C107.344 214.897 107.485 214.993 107.604 215.116C107.727 215.235 107.822 215.376 107.891 215.54C107.964 215.704 108 215.88 108 216.066V222Z" fill="white"/>
<path d="M53.6367 26.9922V55H49.6328V43.0078H33.5977V55H29.5938V26.9922H33.5977V39.0039H49.6328V26.9922H53.6367ZM60.4531 45.918C60.4531 45.3841 60.5508 44.8893 60.7461 44.4336C60.9544 43.9648 61.2279 43.5547 61.5664 43.2031C61.918 42.8516 62.3281 42.5781 62.7969 42.3828C63.2656 42.1745 63.7604 42.0703 64.2812 42.0703H74.2031V38.0469H61.6445V34.1992H74.2031C74.737 34.1992 75.2383 34.3034 75.707 34.5117C76.1758 34.707 76.5794 34.9805 76.918 35.332C77.2695 35.6706 77.543 36.0742 77.7383 36.543C77.9466 37.0117 78.0508 37.513 78.0508 38.0469V55H74.2031V51.4844C74.1641 51.9661 74.0339 52.4219 73.8125 52.8516C73.5911 53.2812 73.3047 53.6589 72.9531 53.9844C72.6146 54.2969 72.224 54.5443 71.7812 54.7266C71.3385 54.9089 70.8698 55 70.375 55H64.2812C63.7604 55 63.2656 54.9023 62.7969 54.707C62.3281 54.4987 61.918 54.2253 61.5664 53.8867C61.2279 53.5352 60.9544 53.125 60.7461 52.6562C60.5508 52.1875 60.4531 51.6862 60.4531 51.1523V45.918ZM64.2812 51.1523H74.2031V45.918H64.2812V51.1523ZM88.3047 38.0469V51.1523H98.2266V47.6367H102.074V51.1523C102.074 51.6862 101.97 52.1875 101.762 52.6562C101.566 53.125 101.293 53.5352 100.941 53.8867C100.603 54.2253 100.199 54.4987 99.7305 54.707C99.2617 54.9023 98.7604 55 98.2266 55H88.3047C87.7839 55 87.2891 54.9023 86.8203 54.707C86.3516 54.4987 85.9414 54.2253 85.5898 53.8867C85.2513 53.5352 84.9779 53.125 84.7695 52.6562C84.5742 52.1875 84.4766 51.6862 84.4766 51.1523V38.0469C84.4766 37.513 84.5742 37.0117 84.7695 36.543C84.9779 36.0742 85.2513 35.6706 85.5898 35.332C85.9414 34.9805 86.3516 34.707 86.8203 34.5117C87.2891 34.3034 87.7839 34.1992 88.3047 34.1992H98.2266C98.7604 34.1992 99.2617 34.3034 99.7305 34.5117C100.199 34.707 100.603 34.9805 100.941 35.332C101.293 35.6706 101.566 36.0742 101.762 36.543C101.97 37.0117 102.074 37.513 102.074 38.0469V41.5625H98.2266V38.0469H88.3047ZM122.25 55L112.328 46.1133V55H108.5V26.1914H112.328V42.4023L121.449 34.1992H126.859L115.688 44.2383L127.66 55H122.25ZM130.453 45.918C130.453 45.3841 130.551 44.8893 130.746 44.4336C130.954 43.9648 131.228 43.5547 131.566 43.2031C131.918 42.8516 132.328 42.5781 132.797 42.3828C133.266 42.1745 133.76 42.0703 134.281 42.0703H144.203V38.0469H131.645V34.1992H144.203C144.737 34.1992 145.238 34.3034 145.707 34.5117C146.176 34.707 146.579 34.9805 146.918 35.332C147.27 35.6706 147.543 36.0742 147.738 36.543C147.947 37.0117 148.051 37.513 148.051 38.0469V55H144.203V51.4844C144.164 51.9661 144.034 52.4219 143.812 52.8516C143.591 53.2812 143.305 53.6589 142.953 53.9844C142.615 54.2969 142.224 54.5443 141.781 54.7266C141.339 54.9089 140.87 55 140.375 55H134.281C133.76 55 133.266 54.9023 132.797 54.707C132.328 54.4987 131.918 54.2253 131.566 53.8867C131.228 53.5352 130.954 53.125 130.746 52.6562C130.551 52.1875 130.453 51.6862 130.453 51.1523V45.918ZM134.281 51.1523H144.203V45.918H134.281V51.1523ZM153.266 34.1992H158.344V27.793H162.191V34.1992H169.027V38.0469H162.191V51.1523H169.027V55H162.191C161.671 55 161.176 54.9023 160.707 54.707C160.238 54.4987 159.828 54.2253 159.477 53.8867C159.125 53.5352 158.845 53.125 158.637 52.6562C158.441 52.1875 158.344 51.6862 158.344 51.1523V38.0469H153.266V34.1992ZM193.852 55H190.004V38.0469H179.281V55H175.453V26.1914H179.281V37.8711C179.307 37.3633 179.424 36.888 179.633 36.4453C179.841 35.9896 180.115 35.599 180.453 35.2734C180.805 34.9349 181.208 34.6745 181.664 34.4922C182.12 34.2969 182.608 34.1992 183.129 34.1992H190.004C190.538 34.1992 191.039 34.3034 191.508 34.5117C191.977 34.707 192.38 34.9805 192.719 35.332C193.07 35.6706 193.344 36.0742 193.539 36.543C193.747 37.0117 193.852 37.513 193.852 38.0469V55ZM218.246 51.1523C218.246 51.6862 218.142 52.1875 217.934 52.6562C217.738 53.125 217.465 53.5352 217.113 53.8867C216.775 54.2253 216.371 54.4987 215.902 54.707C215.447 54.9023 214.952 55 214.418 55H204.086C203.565 55 203.07 54.9023 202.602 54.707C202.133 54.4987 201.723 54.2253 201.371 53.8867C201.033 53.5352 200.759 53.125 200.551 52.6562C200.355 52.1875 200.258 51.6862 200.258 51.1523V38.0469C200.258 37.513 200.355 37.0117 200.551 36.543C200.759 36.0742 201.033 35.6706 201.371 35.332C201.723 34.9805 202.133 34.707 202.602 34.5117C203.07 34.3034 203.565 34.1992 204.086 34.1992H214.418C214.952 34.1992 215.447 34.3034 215.902 34.5117C216.371 34.707 216.775 34.9805 217.113 35.332C217.465 35.6706 217.738 36.0742 217.934 36.543C218.142 37.0117 218.246 37.513 218.246 38.0469V51.1523ZM204.086 38.0469V51.1523H214.418V38.0469H204.086ZM243.07 55H239.223V38.0469H228.5V55H224.672V34.1992H228.5V37.8711C228.526 37.3633 228.643 36.888 228.852 36.4453C229.06 35.9896 229.333 35.599 229.672 35.2734C230.023 34.9349 230.427 34.6745 230.883 34.4922C231.339 34.2969 231.827 34.1992 232.348 34.1992H239.223C239.757 34.1992 240.258 34.3034 240.727 34.5117C241.195 34.707 241.599 34.9805 241.938 35.332C242.289 35.6706 242.562 36.0742 242.758 36.543C242.966 37.0117 243.07 37.513 243.07 38.0469V55ZM262.035 51.1523V46.3281H252.914C252.38 46.3281 251.879 46.2305 251.41 46.0352C250.941 45.8268 250.531 45.5534 250.18 45.2148C249.841 44.8633 249.568 44.4531 249.359 43.9844C249.164 43.5156 249.066 43.0143 249.066 42.4805V38.0469C249.066 37.513 249.164 37.0117 249.359 36.543C249.568 36.0742 249.841 35.6706 250.18 35.332C250.531 34.9805 250.941 34.707 251.41 34.5117C251.879 34.3034 252.38 34.1992 252.914 34.1992H265.082V38.0469H252.914V42.4805H262.035C262.569 42.4805 263.064 42.5846 263.52 42.793C263.988 42.9883 264.398 43.2617 264.75 43.6133C265.102 43.9518 265.375 44.3555 265.57 44.8242C265.779 45.293 265.883 45.7943 265.883 46.3281V51.1523C265.883 51.6862 265.779 52.1875 265.57 52.6562C265.375 53.125 265.102 53.5352 264.75 53.8867C264.398 54.2253 263.988 54.4987 263.52 54.707C263.064 54.9023 262.569 55 262.035 55H249.066V51.1523H262.035Z" fill="white"/>
</svg>
