<svg width="438" height="238" viewBox="0 0 438 238" fill="none" xmlns="http://www.w3.org/2000/svg">
<rect x="1" width="437" height="237" rx="20" fill="#BE847B"/>
<path fill-rule="evenodd" clip-rule="evenodd" d="M390.5 166C405.136 166 417 178.163 417 193.17C417 205.172 409.416 215.353 398.893 218.95C397.549 219.217 397.072 218.369 397.072 217.645C397.072 216.75 397.104 213.824 397.104 210.188C397.104 207.655 396.256 206.001 395.304 205.159C401.206 204.486 407.407 202.188 407.407 191.752C407.407 188.784 406.379 186.362 404.678 184.459C404.953 183.773 405.862 181.009 404.418 177.268C404.418 177.268 402.197 176.54 397.138 180.054C395.021 179.452 392.753 179.149 390.5 179.139C388.248 179.149 385.982 179.452 383.867 180.054C378.803 176.54 376.577 177.268 376.577 177.268C375.138 181.009 376.047 183.773 376.32 184.459C374.627 186.362 373.59 188.784 373.59 191.752C373.59 202.161 379.778 204.494 385.664 205.181C384.906 205.859 384.22 207.056 383.981 208.813C382.471 209.507 378.633 210.709 376.269 206.556C376.269 206.556 374.868 203.946 372.207 203.755C372.207 203.755 369.623 203.72 372.027 205.406C372.027 205.406 373.763 206.241 374.968 209.381C374.968 209.381 376.524 214.23 383.896 212.587C383.909 214.858 383.933 216.999 383.933 217.645C383.933 218.363 383.446 219.204 382.123 218.952C371.592 215.361 364 205.175 364 193.17C364 178.163 375.867 166 390.5 166Z" fill="white"/>
<path opacity="0.56" d="M96.5 104.5C70.9677 58.2227 22.7558 68.1138 1.66717 78.9141C1.55319 78.9725 1.4539 79.0461 1.36334 79.1367C1.1307 79.3693 1 79.6848 1 80.0138V218.5C2.38069 228.51 10.0661 233.779 15.2528 235.785C16.717 236.351 18.2931 236.501 19.863 236.504L322.072 236.999C322.308 237 322.5 236.808 322.5 236.572C322.5 236.524 322.493 236.479 322.477 236.434C311.953 205.92 279.456 150.559 225.5 155.5C193.167 157.833 122.1 150.9 96.5 104.5Z" fill="#DC9A92"/>
<path d="M56.6194 128.246C45.3405 113.474 25.8126 114.539 11.5224 118.714C4.24064 120.842 0.0253998 127.983 0.065584 135.569L0.501057 217.778C1.91051 228.806 9.87627 234.126 15.0726 235.939C16.3554 236.387 17.7205 236.496 19.0791 236.499L234.422 236.994C235.755 236.997 236.758 235.779 236.499 234.471C225.977 194.004 186.894 179.638 150.818 188.946C115.996 197.93 90.8212 177.788 81.6034 165.459C80.9638 164.604 80.4481 163.676 79.9486 162.732C77.2781 157.685 69.964 145.723 56.6194 128.246Z" fill="#DC9A92"/>
<path d="M62.5 194.5C55.5 154.5 2 154.5 0.5 166.5L1.00002 217.5C1.45954 221.942 4.87519 231.226 14.74 235.495C16.5264 236.268 18.4889 236.5 20.4354 236.5H216.788C196.28 208.259 161.212 206.564 136.5 212C111.5 217.5 68.1339 226.694 62.5 194.5Z" fill="#F2A9A0"/>
<path d="M26.6592 220.599C26.6592 220.79 26.6227 220.972 26.5498 221.146C26.4769 221.314 26.3766 221.462 26.249 221.59C26.1214 221.717 25.971 221.818 25.7979 221.891C25.6292 221.964 25.4492 222 25.2578 222H19.6592C19.4678 222 19.2855 221.964 19.1123 221.891C18.9437 221.818 18.7956 221.717 18.668 221.59C18.5404 221.462 18.4401 221.314 18.3672 221.146C18.2943 220.972 18.2578 220.79 18.2578 220.599V213.599C18.2578 213.407 18.2943 213.227 18.3672 213.059C18.4401 212.885 18.5404 212.737 18.668 212.614C18.7956 212.487 18.9437 212.386 19.1123 212.313C19.2855 212.236 19.4678 212.197 19.6592 212.197H25.2578C25.4492 212.197 25.6292 212.236 25.7979 212.313C25.971 212.386 26.1214 212.487 26.249 212.614C26.3766 212.737 26.4769 212.885 26.5498 213.059C26.6227 213.227 26.6592 213.407 26.6592 213.599V220.599ZM19.6592 213.599V220.599H25.2578V213.599H19.6592ZM30.3848 216.066V222H29.0449V214.72H30.3848V216.005C30.3939 215.827 30.4349 215.661 30.5078 215.506C30.5807 215.346 30.6764 215.21 30.7949 215.096C30.918 214.977 31.0592 214.886 31.2188 214.822C31.3783 214.754 31.5492 214.72 31.7314 214.72H33.1602C33.347 214.72 33.5202 214.756 33.6797 214.829C33.8438 214.897 33.9873 214.993 34.1104 215.116C34.2334 215.235 34.3291 215.376 34.3975 215.54C34.4704 215.704 34.5068 215.88 34.5068 216.066V217.297H33.1602V216.066H30.3848ZM36.1816 216.066C36.1816 215.88 36.2158 215.704 36.2842 215.54C36.3571 215.376 36.4528 215.235 36.5713 215.116C36.6943 214.993 36.8379 214.897 37.002 214.829C37.166 214.756 37.3392 214.72 37.5215 214.72H39.9346C40.1123 214.72 40.2809 214.754 40.4404 214.822C40.5999 214.886 40.7389 214.977 40.8574 215.096C40.9805 215.21 41.0785 215.346 41.1514 215.506C41.2288 215.661 41.2699 215.827 41.2744 216.005V214.72H42.6211V223.593C42.6211 223.78 42.5846 223.955 42.5117 224.119C42.4434 224.283 42.3477 224.424 42.2246 224.543C42.1061 224.666 41.9648 224.762 41.8008 224.83C41.6367 224.903 41.4613 224.939 41.2744 224.939H37.0225V223.593H41.2744V221.72H37.5215C37.3392 221.72 37.166 221.686 37.002 221.617C36.8379 221.544 36.6943 221.449 36.5713 221.33C36.4528 221.207 36.3571 221.063 36.2842 220.899C36.2158 220.735 36.1816 220.56 36.1816 220.373V216.066ZM41.2744 220.373V216.066H37.5215V220.373H41.2744ZM44.8633 218.821C44.8633 218.634 44.8975 218.461 44.9658 218.302C45.0387 218.138 45.1344 217.994 45.2529 217.871C45.376 217.748 45.5195 217.652 45.6836 217.584C45.8477 217.511 46.0208 217.475 46.2031 217.475H49.6758V216.066H45.2803V214.72H49.6758C49.8626 214.72 50.0381 214.756 50.2021 214.829C50.3662 214.897 50.5075 214.993 50.626 215.116C50.749 215.235 50.8447 215.376 50.9131 215.54C50.986 215.704 51.0225 215.88 51.0225 216.066V222H49.6758V220.77C49.6621 220.938 49.6165 221.098 49.5391 221.248C49.4616 221.398 49.3613 221.531 49.2383 221.645C49.1198 221.754 48.9831 221.84 48.8281 221.904C48.6732 221.968 48.5091 222 48.3359 222H46.2031C46.0208 222 45.8477 221.966 45.6836 221.897C45.5195 221.825 45.376 221.729 45.2529 221.61C45.1344 221.487 45.0387 221.344 44.9658 221.18C44.8975 221.016 44.8633 220.84 44.8633 220.653V218.821ZM46.2031 220.653H49.6758V218.821H46.2031V220.653ZM59.7109 222H58.3643V216.066H54.6113V222H53.2715V214.72H54.6113V216.005C54.6204 215.827 54.6615 215.661 54.7344 215.506C54.8073 215.346 54.903 215.21 55.0215 215.096C55.1445 214.977 55.2858 214.886 55.4453 214.822C55.6048 214.754 55.7757 214.72 55.958 214.72H58.3643C58.5511 214.72 58.7266 214.756 58.8906 214.829C59.0547 214.897 59.196 214.993 59.3145 215.116C59.4375 215.235 59.5332 215.376 59.6016 215.54C59.6745 215.704 59.7109 215.88 59.7109 216.066V222ZM63.3682 214.72V222H62.0215V214.72H63.3682ZM61.9531 211.917H63.4365V213.318H61.9531V211.917ZM65.542 214.72H71.5645V215.082L67.6885 220.653H71.5645V222H65.4053V221.638L69.2812 216.066H65.542V214.72ZM73.5332 218.821C73.5332 218.634 73.5674 218.461 73.6357 218.302C73.7087 218.138 73.8044 217.994 73.9229 217.871C74.0459 217.748 74.1895 217.652 74.3535 217.584C74.5176 217.511 74.6908 217.475 74.873 217.475H78.3457V216.066H73.9502V214.72H78.3457C78.5326 214.72 78.708 214.756 78.8721 214.829C79.0361 214.897 79.1774 214.993 79.2959 215.116C79.4189 215.235 79.5146 215.376 79.583 215.54C79.6559 215.704 79.6924 215.88 79.6924 216.066V222H78.3457V220.77C78.332 220.938 78.2865 221.098 78.209 221.248C78.1315 221.398 78.0312 221.531 77.9082 221.645C77.7897 221.754 77.653 221.84 77.498 221.904C77.3431 221.968 77.179 222 77.0059 222H74.873C74.6908 222 74.5176 221.966 74.3535 221.897C74.1895 221.825 74.0459 221.729 73.9229 221.61C73.8044 221.487 73.7087 221.344 73.6357 221.18C73.5674 221.016 73.5332 220.84 73.5332 220.653V218.821ZM74.873 220.653H78.3457V218.821H74.873V220.653ZM81.5176 214.72H83.2949V212.478H84.6416V214.72H87.0342V216.066H84.6416V220.653H87.0342V222H84.6416C84.4593 222 84.2861 221.966 84.1221 221.897C83.958 221.825 83.8145 221.729 83.6914 221.61C83.5684 221.487 83.4704 221.344 83.3975 221.18C83.3291 221.016 83.2949 220.84 83.2949 220.653V216.066H81.5176V214.72ZM90.6982 214.72V222H89.3516V214.72H90.6982ZM89.2832 211.917H90.7666V213.318H89.2832V211.917ZM99.3115 220.653C99.3115 220.84 99.2751 221.016 99.2021 221.18C99.1338 221.344 99.0381 221.487 98.915 221.61C98.7965 221.729 98.6553 221.825 98.4912 221.897C98.3317 221.966 98.1585 222 97.9717 222H94.3555C94.1732 222 94 221.966 93.8359 221.897C93.6719 221.825 93.5283 221.729 93.4053 221.61C93.2868 221.487 93.1911 221.344 93.1182 221.18C93.0498 221.016 93.0156 220.84 93.0156 220.653V216.066C93.0156 215.88 93.0498 215.704 93.1182 215.54C93.1911 215.376 93.2868 215.235 93.4053 215.116C93.5283 214.993 93.6719 214.897 93.8359 214.829C94 214.756 94.1732 214.72 94.3555 214.72H97.9717C98.1585 214.72 98.3317 214.756 98.4912 214.829C98.6553 214.897 98.7965 214.993 98.915 215.116C99.0381 215.235 99.1338 215.376 99.2021 215.54C99.2751 215.704 99.3115 215.88 99.3115 216.066V220.653ZM94.3555 216.066V220.653H97.9717V216.066H94.3555ZM108 222H106.653V216.066H102.9V222H101.561V214.72H102.9V216.005C102.91 215.827 102.951 215.661 103.023 215.506C103.096 215.346 103.192 215.21 103.311 215.096C103.434 214.977 103.575 214.886 103.734 214.822C103.894 214.754 104.065 214.72 104.247 214.72H106.653C106.84 214.72 107.016 214.756 107.18 214.829C107.344 214.897 107.485 214.993 107.604 215.116C107.727 215.235 107.822 215.376 107.891 215.54C107.964 215.704 108 215.88 108 216.066V222Z" fill="white"/>
<path d="M44.0469 55L33.5977 34.4727V55H29.5938V26.9922H33.9688L44.6328 48.0859L55.3164 26.9922H59.6719V55H55.6875V34.4727L45.2383 55H44.0469ZM84.1055 46.5625H70.3359V51.1523H84.1055V55H70.3359C69.8151 55 69.3203 54.9023 68.8516 54.707C68.3828 54.4987 67.9727 54.2253 67.6211 53.8867C67.2826 53.5352 67.0091 53.125 66.8008 52.6562C66.6055 52.1875 66.5078 51.6862 66.5078 51.1523V38.0469C66.5078 37.513 66.6055 37.0117 66.8008 36.543C67.0091 36.0742 67.2826 35.6706 67.6211 35.332C67.9727 34.9805 68.3828 34.707 68.8516 34.5117C69.3203 34.3034 69.8151 34.1992 70.3359 34.1992H80.2578C80.7917 34.1992 81.293 34.3034 81.7617 34.5117C82.2305 34.707 82.6341 34.9805 82.9727 35.332C83.3242 35.6706 83.5977 36.0742 83.793 36.543C84.0013 37.0117 84.1055 37.513 84.1055 38.0469V46.5625ZM70.3359 38.0469V42.7148H80.2578V38.0469H70.3359ZM108.52 51.1523C108.52 51.6862 108.415 52.1875 108.207 52.6562C108.012 53.125 107.738 53.5352 107.387 53.8867C107.048 54.2253 106.645 54.4987 106.176 54.707C105.72 54.9023 105.225 55 104.691 55H94.3594C93.8385 55 93.3438 54.9023 92.875 54.707C92.4062 54.4987 91.9961 54.2253 91.6445 53.8867C91.306 53.5352 91.0326 53.125 90.8242 52.6562C90.6289 52.1875 90.5312 51.6862 90.5312 51.1523V38.0469C90.5312 37.513 90.6289 37.0117 90.8242 36.543C91.0326 36.0742 91.306 35.6706 91.6445 35.332C91.9961 34.9805 92.4062 34.707 92.875 34.5117C93.3438 34.3034 93.8385 34.1992 94.3594 34.1992H104.691C105.225 34.1992 105.72 34.3034 106.176 34.5117C106.645 34.707 107.048 34.9805 107.387 35.332C107.738 35.6706 108.012 36.0742 108.207 36.543C108.415 37.0117 108.52 37.513 108.52 38.0469V51.1523ZM94.3594 38.0469V51.1523H104.691V38.0469H94.3594ZM119.262 55L112.543 34.1992H116.43L121.352 49.8828L125.941 34.1992H129.867L134.457 49.8828L139.379 34.1992H143.266L136.547 55H132.543L127.895 39.7266L123.266 55H119.262ZM151.117 38.0469V55H147.289V34.1992H151.117V37.8711C151.143 37.3633 151.26 36.888 151.469 36.4453C151.677 35.9896 151.951 35.599 152.289 35.2734C152.641 34.9349 153.044 34.6745 153.5 34.4922C153.956 34.2969 154.444 34.1992 154.965 34.1992H159.047C159.581 34.1992 160.076 34.3034 160.531 34.5117C161 34.707 161.41 34.9805 161.762 35.332C162.113 35.6706 162.387 36.0742 162.582 36.543C162.79 37.0117 162.895 37.513 162.895 38.0469V41.5625H159.047V38.0469H151.117ZM171.508 38.0469V51.1523H181.43V47.6367H185.277V51.1523C185.277 51.6862 185.173 52.1875 184.965 52.6562C184.77 53.125 184.496 53.5352 184.145 53.8867C183.806 54.2253 183.402 54.4987 182.934 54.707C182.465 54.9023 181.964 55 181.43 55H171.508C170.987 55 170.492 54.9023 170.023 54.707C169.555 54.4987 169.145 54.2253 168.793 53.8867C168.454 53.5352 168.181 53.125 167.973 52.6562C167.777 52.1875 167.68 51.6862 167.68 51.1523V38.0469C167.68 37.513 167.777 37.0117 167.973 36.543C168.181 36.0742 168.454 35.6706 168.793 35.332C169.145 34.9805 169.555 34.707 170.023 34.5117C170.492 34.3034 170.987 34.1992 171.508 34.1992H181.43C181.964 34.1992 182.465 34.3034 182.934 34.5117C183.402 34.707 183.806 34.9805 184.145 35.332C184.496 35.6706 184.77 36.0742 184.965 36.543C185.173 37.0117 185.277 37.513 185.277 38.0469V41.5625H181.43V38.0469H171.508ZM210.102 55H206.254V38.0469H195.531V55H191.703V26.1914H195.531V37.8711C195.557 37.3633 195.674 36.888 195.883 36.4453C196.091 35.9896 196.365 35.599 196.703 35.2734C197.055 34.9349 197.458 34.6745 197.914 34.4922C198.37 34.2969 198.858 34.1992 199.379 34.1992H206.254C206.788 34.1992 207.289 34.3034 207.758 34.5117C208.227 34.707 208.63 34.9805 208.969 35.332C209.32 35.6706 209.594 36.0742 209.789 36.543C209.997 37.0117 210.102 37.513 210.102 38.0469V55Z" fill="white"/>
</svg>
