<svg width="438" height="238" viewBox="0 0 438 238" fill="none" xmlns="http://www.w3.org/2000/svg">
<rect x="1" width="437" height="237" rx="20" fill="#5755B1"/>
<path fill-rule="evenodd" clip-rule="evenodd" d="M390.5 166C405.136 166 417 178.163 417 193.17C417 205.172 409.416 215.353 398.893 218.95C397.549 219.217 397.072 218.369 397.072 217.645C397.072 216.75 397.104 213.824 397.104 210.188C397.104 207.655 396.256 206.001 395.304 205.159C401.206 204.486 407.407 202.188 407.407 191.752C407.407 188.784 406.379 186.362 404.678 184.459C404.953 183.773 405.862 181.009 404.418 177.268C404.418 177.268 402.197 176.54 397.138 180.054C395.021 179.452 392.753 179.149 390.5 179.139C388.248 179.149 385.982 179.452 383.867 180.054C378.803 176.54 376.577 177.268 376.577 177.268C375.138 181.009 376.047 183.773 376.32 184.459C374.627 186.362 373.59 188.784 373.59 191.752C373.59 202.161 379.778 204.494 385.664 205.181C384.906 205.859 384.22 207.056 383.981 208.813C382.471 209.507 378.633 210.709 376.269 206.556C376.269 206.556 374.868 203.946 372.207 203.755C372.207 203.755 369.623 203.72 372.027 205.406C372.027 205.406 373.763 206.241 374.968 209.381C374.968 209.381 376.524 214.23 383.896 212.587C383.909 214.858 383.933 216.999 383.933 217.645C383.933 218.363 383.446 219.204 382.123 218.952C371.592 215.361 364 205.175 364 193.17C364 178.163 375.867 166 390.5 166Z" fill="white"/>
<path opacity="0.56" d="M96.5 104.5C70.9677 58.2227 22.7558 68.1138 1.66717 78.9141C1.55319 78.9725 1.4539 79.0461 1.36334 79.1367C1.1307 79.3693 1 79.6848 1 80.0138V218.5C2.38069 228.51 10.0661 233.779 15.2528 235.785C16.717 236.351 18.2931 236.501 19.863 236.504L322.072 236.999C322.308 237 322.5 236.808 322.5 236.572C322.5 236.524 322.493 236.479 322.477 236.434C311.953 205.92 279.456 150.559 225.5 155.5C193.167 157.833 122.1 150.9 96.5 104.5Z" fill="#7C80E1"/>
<path d="M56.6194 128.246C45.3405 113.474 25.8126 114.539 11.5224 118.714C4.24064 120.842 0.0253998 127.983 0.065584 135.569L0.501057 217.778C1.91051 228.806 9.87627 234.126 15.0726 235.939C16.3554 236.387 17.7205 236.496 19.0791 236.499L234.422 236.994C235.755 236.997 236.758 235.779 236.499 234.471C225.977 194.004 186.894 179.638 150.818 188.946C115.996 197.93 90.8212 177.788 81.6034 165.459C80.9638 164.604 80.4481 163.676 79.9486 162.732C77.2781 157.685 69.964 145.723 56.6194 128.246Z" fill="#7478D9"/>
<path d="M62.5 194.5C55.5 154.5 2 154.5 0.5 166.5L1.00002 217.5C1.45954 221.942 4.87519 231.226 14.74 235.495C16.5264 236.268 18.4889 236.5 20.4354 236.5H216.788C196.28 208.259 161.212 206.564 136.5 212C111.5 217.5 68.1339 226.694 62.5 194.5Z" fill="#7C87FF" fill-opacity="0.7"/>
<path d="M26.6592 220.599C26.6592 220.79 26.6227 220.972 26.5498 221.146C26.4769 221.314 26.3766 221.462 26.249 221.59C26.1214 221.717 25.971 221.818 25.7979 221.891C25.6292 221.964 25.4492 222 25.2578 222H19.6592C19.4678 222 19.2855 221.964 19.1123 221.891C18.9437 221.818 18.7956 221.717 18.668 221.59C18.5404 221.462 18.4401 221.314 18.3672 221.146C18.2943 220.972 18.2578 220.79 18.2578 220.599V213.599C18.2578 213.407 18.2943 213.227 18.3672 213.059C18.4401 212.885 18.5404 212.737 18.668 212.614C18.7956 212.487 18.9437 212.386 19.1123 212.313C19.2855 212.236 19.4678 212.197 19.6592 212.197H25.2578C25.4492 212.197 25.6292 212.236 25.7979 212.313C25.971 212.386 26.1214 212.487 26.249 212.614C26.3766 212.737 26.4769 212.885 26.5498 213.059C26.6227 213.227 26.6592 213.407 26.6592 213.599V220.599ZM19.6592 213.599V220.599H25.2578V213.599H19.6592ZM30.3848 216.066V222H29.0449V214.72H30.3848V216.005C30.3939 215.827 30.4349 215.661 30.5078 215.506C30.5807 215.346 30.6764 215.21 30.7949 215.096C30.918 214.977 31.0592 214.886 31.2188 214.822C31.3783 214.754 31.5492 214.72 31.7314 214.72H33.1602C33.347 214.72 33.5202 214.756 33.6797 214.829C33.8438 214.897 33.9873 214.993 34.1104 215.116C34.2334 215.235 34.3291 215.376 34.3975 215.54C34.4704 215.704 34.5068 215.88 34.5068 216.066V217.297H33.1602V216.066H30.3848ZM36.1816 216.066C36.1816 215.88 36.2158 215.704 36.2842 215.54C36.3571 215.376 36.4528 215.235 36.5713 215.116C36.6943 214.993 36.8379 214.897 37.002 214.829C37.166 214.756 37.3392 214.72 37.5215 214.72H39.9346C40.1123 214.72 40.2809 214.754 40.4404 214.822C40.5999 214.886 40.7389 214.977 40.8574 215.096C40.9805 215.21 41.0785 215.346 41.1514 215.506C41.2288 215.661 41.2699 215.827 41.2744 216.005V214.72H42.6211V223.593C42.6211 223.78 42.5846 223.955 42.5117 224.119C42.4434 224.283 42.3477 224.424 42.2246 224.543C42.1061 224.666 41.9648 224.762 41.8008 224.83C41.6367 224.903 41.4613 224.939 41.2744 224.939H37.0225V223.593H41.2744V221.72H37.5215C37.3392 221.72 37.166 221.686 37.002 221.617C36.8379 221.544 36.6943 221.449 36.5713 221.33C36.4528 221.207 36.3571 221.063 36.2842 220.899C36.2158 220.735 36.1816 220.56 36.1816 220.373V216.066ZM41.2744 220.373V216.066H37.5215V220.373H41.2744ZM44.8633 218.821C44.8633 218.634 44.8975 218.461 44.9658 218.302C45.0387 218.138 45.1344 217.994 45.2529 217.871C45.376 217.748 45.5195 217.652 45.6836 217.584C45.8477 217.511 46.0208 217.475 46.2031 217.475H49.6758V216.066H45.2803V214.72H49.6758C49.8626 214.72 50.0381 214.756 50.2021 214.829C50.3662 214.897 50.5075 214.993 50.626 215.116C50.749 215.235 50.8447 215.376 50.9131 215.54C50.986 215.704 51.0225 215.88 51.0225 216.066V222H49.6758V220.77C49.6621 220.938 49.6165 221.098 49.5391 221.248C49.4616 221.398 49.3613 221.531 49.2383 221.645C49.1198 221.754 48.9831 221.84 48.8281 221.904C48.6732 221.968 48.5091 222 48.3359 222H46.2031C46.0208 222 45.8477 221.966 45.6836 221.897C45.5195 221.825 45.376 221.729 45.2529 221.61C45.1344 221.487 45.0387 221.344 44.9658 221.18C44.8975 221.016 44.8633 220.84 44.8633 220.653V218.821ZM46.2031 220.653H49.6758V218.821H46.2031V220.653ZM59.7109 222H58.3643V216.066H54.6113V222H53.2715V214.72H54.6113V216.005C54.6204 215.827 54.6615 215.661 54.7344 215.506C54.8073 215.346 54.903 215.21 55.0215 215.096C55.1445 214.977 55.2858 214.886 55.4453 214.822C55.6048 214.754 55.7757 214.72 55.958 214.72H58.3643C58.5511 214.72 58.7266 214.756 58.8906 214.829C59.0547 214.897 59.196 214.993 59.3145 215.116C59.4375 215.235 59.5332 215.376 59.6016 215.54C59.6745 215.704 59.7109 215.88 59.7109 216.066V222ZM63.3682 214.72V222H62.0215V214.72H63.3682ZM61.9531 211.917H63.4365V213.318H61.9531V211.917ZM65.542 214.72H71.5645V215.082L67.6885 220.653H71.5645V222H65.4053V221.638L69.2812 216.066H65.542V214.72ZM73.5332 218.821C73.5332 218.634 73.5674 218.461 73.6357 218.302C73.7087 218.138 73.8044 217.994 73.9229 217.871C74.0459 217.748 74.1895 217.652 74.3535 217.584C74.5176 217.511 74.6908 217.475 74.873 217.475H78.3457V216.066H73.9502V214.72H78.3457C78.5326 214.72 78.708 214.756 78.8721 214.829C79.0361 214.897 79.1774 214.993 79.2959 215.116C79.4189 215.235 79.5146 215.376 79.583 215.54C79.6559 215.704 79.6924 215.88 79.6924 216.066V222H78.3457V220.77C78.332 220.938 78.2865 221.098 78.209 221.248C78.1315 221.398 78.0312 221.531 77.9082 221.645C77.7897 221.754 77.653 221.84 77.498 221.904C77.3431 221.968 77.179 222 77.0059 222H74.873C74.6908 222 74.5176 221.966 74.3535 221.897C74.1895 221.825 74.0459 221.729 73.9229 221.61C73.8044 221.487 73.7087 221.344 73.6357 221.18C73.5674 221.016 73.5332 220.84 73.5332 220.653V218.821ZM74.873 220.653H78.3457V218.821H74.873V220.653ZM81.5176 214.72H83.2949V212.478H84.6416V214.72H87.0342V216.066H84.6416V220.653H87.0342V222H84.6416C84.4593 222 84.2861 221.966 84.1221 221.897C83.958 221.825 83.8145 221.729 83.6914 221.61C83.5684 221.487 83.4704 221.344 83.3975 221.18C83.3291 221.016 83.2949 220.84 83.2949 220.653V216.066H81.5176V214.72ZM90.6982 214.72V222H89.3516V214.72H90.6982ZM89.2832 211.917H90.7666V213.318H89.2832V211.917ZM99.3115 220.653C99.3115 220.84 99.2751 221.016 99.2021 221.18C99.1338 221.344 99.0381 221.487 98.915 221.61C98.7965 221.729 98.6553 221.825 98.4912 221.897C98.3317 221.966 98.1585 222 97.9717 222H94.3555C94.1732 222 94 221.966 93.8359 221.897C93.6719 221.825 93.5283 221.729 93.4053 221.61C93.2868 221.487 93.1911 221.344 93.1182 221.18C93.0498 221.016 93.0156 220.84 93.0156 220.653V216.066C93.0156 215.88 93.0498 215.704 93.1182 215.54C93.1911 215.376 93.2868 215.235 93.4053 215.116C93.5283 214.993 93.6719 214.897 93.8359 214.829C94 214.756 94.1732 214.72 94.3555 214.72H97.9717C98.1585 214.72 98.3317 214.756 98.4912 214.829C98.6553 214.897 98.7965 214.993 98.915 215.116C99.0381 215.235 99.1338 215.376 99.2021 215.54C99.2751 215.704 99.3115 215.88 99.3115 216.066V220.653ZM94.3555 216.066V220.653H97.9717V216.066H94.3555ZM108 222H106.653V216.066H102.9V222H101.561V214.72H102.9V216.005C102.91 215.827 102.951 215.661 103.023 215.506C103.096 215.346 103.192 215.21 103.311 215.096C103.434 214.977 103.575 214.886 103.734 214.822C103.894 214.754 104.065 214.72 104.247 214.72H106.653C106.84 214.72 107.016 214.756 107.18 214.829C107.344 214.897 107.485 214.993 107.604 215.116C107.727 215.235 107.822 215.376 107.891 215.54C107.964 215.704 108 215.88 108 216.066V222Z" fill="white"/>
<path d="M27.1914 26.9922H49.5938V30.9961H40.3945V55H36.3906V30.9961H27.1914V26.9922ZM69.1836 46.5625H55.4141V51.1523H69.1836V55H55.4141C54.8932 55 54.3984 54.9023 53.9297 54.707C53.4609 54.4987 53.0508 54.2253 52.6992 53.8867C52.3607 53.5352 52.0872 53.125 51.8789 52.6562C51.6836 52.1875 51.5859 51.6862 51.5859 51.1523V38.0469C51.5859 37.513 51.6836 37.0117 51.8789 36.543C52.0872 36.0742 52.3607 35.6706 52.6992 35.332C53.0508 34.9805 53.4609 34.707 53.9297 34.5117C54.3984 34.3034 54.8932 34.1992 55.4141 34.1992H65.3359C65.8698 34.1992 66.3711 34.3034 66.8398 34.5117C67.3086 34.707 67.7122 34.9805 68.0508 35.332C68.4023 35.6706 68.6758 36.0742 68.8711 36.543C69.0794 37.0117 69.1836 37.513 69.1836 38.0469V46.5625ZM55.4141 38.0469V42.7148H65.3359V38.0469H55.4141ZM79.4375 26.1914V55H75.6094V26.1914H79.4375ZM103.441 46.5625H89.6719V51.1523H103.441V55H89.6719C89.151 55 88.6562 54.9023 88.1875 54.707C87.7188 54.4987 87.3086 54.2253 86.957 53.8867C86.6185 53.5352 86.3451 53.125 86.1367 52.6562C85.9414 52.1875 85.8438 51.6862 85.8438 51.1523V38.0469C85.8438 37.513 85.9414 37.0117 86.1367 36.543C86.3451 36.0742 86.6185 35.6706 86.957 35.332C87.3086 34.9805 87.7188 34.707 88.1875 34.5117C88.6562 34.3034 89.151 34.1992 89.6719 34.1992H99.5938C100.128 34.1992 100.629 34.3034 101.098 34.5117C101.566 34.707 101.97 34.9805 102.309 35.332C102.66 35.6706 102.934 36.0742 103.129 36.543C103.337 37.0117 103.441 37.513 103.441 38.0469V46.5625ZM89.6719 38.0469V42.7148H99.5938V38.0469H89.6719ZM109.867 38.0469C109.867 37.513 109.965 37.0117 110.16 36.543C110.368 36.0742 110.642 35.6706 110.98 35.332C111.332 34.9805 111.742 34.707 112.211 34.5117C112.68 34.3034 113.174 34.1992 113.695 34.1992H120.59C121.098 34.1992 121.579 34.2969 122.035 34.4922C122.491 34.6745 122.888 34.9349 123.227 35.2734C123.578 35.599 123.858 35.9896 124.066 36.4453C124.288 36.888 124.405 37.3633 124.418 37.8711V34.1992H128.266V59.5508C128.266 60.0846 128.161 60.5859 127.953 61.0547C127.758 61.5234 127.484 61.9271 127.133 62.2656C126.794 62.6172 126.391 62.8906 125.922 63.0859C125.453 63.2943 124.952 63.3984 124.418 63.3984H112.27V59.5508H124.418V54.1992H113.695C113.174 54.1992 112.68 54.1016 112.211 53.9062C111.742 53.6979 111.332 53.4245 110.98 53.0859C110.642 52.7344 110.368 52.3242 110.16 51.8555C109.965 51.3867 109.867 50.8854 109.867 50.3516V38.0469ZM124.418 50.3516V38.0469H113.695V50.3516H124.418ZM138.5 38.0469V55H134.672V34.1992H138.5V37.8711C138.526 37.3633 138.643 36.888 138.852 36.4453C139.06 35.9896 139.333 35.599 139.672 35.2734C140.023 34.9349 140.427 34.6745 140.883 34.4922C141.339 34.2969 141.827 34.1992 142.348 34.1992H146.43C146.964 34.1992 147.458 34.3034 147.914 34.5117C148.383 34.707 148.793 34.9805 149.145 35.332C149.496 35.6706 149.77 36.0742 149.965 36.543C150.173 37.0117 150.277 37.513 150.277 38.0469V41.5625H146.43V38.0469H138.5ZM155.062 45.918C155.062 45.3841 155.16 44.8893 155.355 44.4336C155.564 43.9648 155.837 43.5547 156.176 43.2031C156.527 42.8516 156.938 42.5781 157.406 42.3828C157.875 42.1745 158.37 42.0703 158.891 42.0703H168.812V38.0469H156.254V34.1992H168.812C169.346 34.1992 169.848 34.3034 170.316 34.5117C170.785 34.707 171.189 34.9805 171.527 35.332C171.879 35.6706 172.152 36.0742 172.348 36.543C172.556 37.0117 172.66 37.513 172.66 38.0469V55H168.812V51.4844C168.773 51.9661 168.643 52.4219 168.422 52.8516C168.201 53.2812 167.914 53.6589 167.562 53.9844C167.224 54.2969 166.833 54.5443 166.391 54.7266C165.948 54.9089 165.479 55 164.984 55H158.891C158.37 55 157.875 54.9023 157.406 54.707C156.938 54.4987 156.527 54.2253 156.176 53.8867C155.837 53.5352 155.564 53.125 155.355 52.6562C155.16 52.1875 155.062 51.6862 155.062 51.1523V45.918ZM158.891 51.1523H168.812V45.918H158.891V51.1523ZM195.57 38.0469V55H191.723V38.0469H182.914V55H179.086V34.1992H182.914V37.8711C182.94 37.3633 183.057 36.888 183.266 36.4453C183.474 35.9896 183.747 35.599 184.086 35.2734C184.438 34.9349 184.841 34.6745 185.297 34.4922C185.753 34.2969 186.241 34.1992 186.762 34.1992H191.723C192.23 34.1992 192.712 34.2969 193.168 34.4922C193.624 34.6745 194.027 34.9349 194.379 35.2734C194.73 35.599 195.01 35.9896 195.219 36.4453C195.44 36.888 195.557 37.3633 195.57 37.8711C195.596 37.3633 195.707 36.888 195.902 36.4453C196.111 35.9896 196.384 35.599 196.723 35.2734C197.074 34.9349 197.478 34.6745 197.934 34.4922C198.389 34.2969 198.878 34.1992 199.398 34.1992H204.359C204.893 34.1992 205.395 34.3034 205.863 34.5117C206.332 34.707 206.736 34.9805 207.074 35.332C207.426 35.6706 207.699 36.0742 207.895 36.543C208.103 37.0117 208.207 37.513 208.207 38.0469V55H204.359V38.0469H195.57ZM245.258 40.3906C245.844 40.5729 246.378 40.8333 246.859 41.1719C247.341 41.5104 247.751 41.9466 248.09 42.4805C248.428 43.0013 248.689 43.6198 248.871 44.3359C249.053 45.0521 249.145 45.8724 249.145 46.7969V48.2031C249.145 52.7344 246.879 55 242.348 55H227.016V26.9922H241.547C246.078 26.9922 248.344 29.2643 248.344 33.8086V34.3164C248.344 35.8919 248.09 37.181 247.582 38.1836C247.087 39.1732 246.312 39.9089 245.258 40.3906ZM230.941 42.793V51.0742H242.23C243.285 51.0742 244.047 50.8268 244.516 50.332C244.984 49.8372 245.219 49.0625 245.219 48.0078V45.8398C245.219 44.7721 244.984 43.9974 244.516 43.5156C244.047 43.0339 243.285 42.793 242.23 42.793H230.941ZM230.941 30.918V38.8867H241.703C242.667 38.8477 243.357 38.5872 243.773 38.1055C244.203 37.6107 244.418 36.8555 244.418 35.8398V34.0039C244.418 32.9362 244.184 32.1549 243.715 31.6602C243.246 31.1654 242.484 30.918 241.43 30.918H230.941ZM272.738 51.1523C272.738 51.6862 272.634 52.1875 272.426 52.6562C272.23 53.125 271.957 53.5352 271.605 53.8867C271.267 54.2253 270.863 54.4987 270.395 54.707C269.939 54.9023 269.444 55 268.91 55H258.578C258.057 55 257.562 54.9023 257.094 54.707C256.625 54.4987 256.215 54.2253 255.863 53.8867C255.525 53.5352 255.251 53.125 255.043 52.6562C254.848 52.1875 254.75 51.6862 254.75 51.1523V38.0469C254.75 37.513 254.848 37.0117 255.043 36.543C255.251 36.0742 255.525 35.6706 255.863 35.332C256.215 34.9805 256.625 34.707 257.094 34.5117C257.562 34.3034 258.057 34.1992 258.578 34.1992H268.91C269.444 34.1992 269.939 34.3034 270.395 34.5117C270.863 34.707 271.267 34.9805 271.605 35.332C271.957 35.6706 272.23 36.0742 272.426 36.543C272.634 37.0117 272.738 37.513 272.738 38.0469V51.1523ZM258.578 38.0469V51.1523H268.91V38.0469H258.578ZM277.953 34.1992H283.031V27.793H286.879V34.1992H293.715V38.0469H286.879V51.1523H293.715V55H286.879C286.358 55 285.863 54.9023 285.395 54.707C284.926 54.4987 284.516 54.2253 284.164 53.8867C283.812 53.5352 283.533 53.125 283.324 52.6562C283.129 52.1875 283.031 51.6862 283.031 51.1523V38.0469H277.953V34.1992ZM312.699 51.1523V46.3281H303.578C303.044 46.3281 302.543 46.2305 302.074 46.0352C301.605 45.8268 301.195 45.5534 300.844 45.2148C300.505 44.8633 300.232 44.4531 300.023 43.9844C299.828 43.5156 299.73 43.0143 299.73 42.4805V38.0469C299.73 37.513 299.828 37.0117 300.023 36.543C300.232 36.0742 300.505 35.6706 300.844 35.332C301.195 34.9805 301.605 34.707 302.074 34.5117C302.543 34.3034 303.044 34.1992 303.578 34.1992H315.746V38.0469H303.578V42.4805H312.699C313.233 42.4805 313.728 42.5846 314.184 42.793C314.652 42.9883 315.062 43.2617 315.414 43.6133C315.766 43.9518 316.039 44.3555 316.234 44.8242C316.443 45.293 316.547 45.7943 316.547 46.3281V51.1523C316.547 51.6862 316.443 52.1875 316.234 52.6562C316.039 53.125 315.766 53.5352 315.414 53.8867C315.062 54.2253 314.652 54.4987 314.184 54.707C313.728 54.9023 313.233 55 312.699 55H299.73V51.1523H312.699Z" fill="white"/>
</svg>
